<svg width="49" height="49" viewBox="0 0 49 49" fill="none" xmlns="http://www.w3.org/2000/svg">
<g clip-path="url(#clip0_79_92)">
<path d="M0.4375 17.8541C0.4375 11.7577 0.4375 8.70955 1.62394 6.38103C2.66754 4.3328 4.3328 2.66754 6.38103 1.62394C8.70955 0.4375 11.7577 0.4375 17.8541 0.4375H31.1459C37.2423 0.4375 40.2905 0.4375 42.6189 1.62394C44.6671 2.66754 46.3324 4.3328 47.3761 6.38103C48.5625 8.70955 48.5625 11.7577 48.5625 17.8541V31.1459C48.5625 37.2423 48.5625 40.2905 47.3761 42.6189C46.3324 44.6671 44.6671 46.3324 42.6189 47.3761C40.2905 48.5625 37.2423 48.5625 31.1459 48.5625H17.8541C11.7577 48.5625 8.70955 48.5625 6.38103 47.3761C4.3328 46.3324 2.66754 44.6671 1.62394 42.6189C0.4375 40.2905 0.4375 37.2423 0.4375 31.1459V17.8541Z" fill="#00005B"/>
<path d="M20.7004 30.6252H13.2428L11.7255 35.4689C11.6834 35.6484 11.518 35.7757 11.3381 35.7669H7.56092C7.34553 35.7669 7.27019 35.6455 7.33495 35.4027L13.7916 16.4091C13.8562 16.2106 13.9208 16.0164 13.9854 15.7624C14.0699 15.3204 14.1131 14.8715 14.1145 14.4214C14.0961 14.2884 14.2108 14.1705 14.3404 14.1895H19.4737C19.6241 14.1895 19.71 14.2447 19.7318 14.355L27.0604 35.4357C27.1248 35.6567 27.0602 35.7671 26.8667 35.7669H22.6697C22.5226 35.7836 22.382 35.6827 22.3469 35.535L20.7004 30.6252ZM14.4051 26.5413H19.506C18.6679 23.6775 17.7221 20.8516 16.9555 17.9655C16.0869 20.9592 15.2847 23.7357 14.4051 26.5413Z" fill="#9999FF"/>
<path d="M32.5109 28.7554C32.8077 31.2147 34.8729 32.3872 37.1598 32.3372C38.4493 32.3119 39.8274 32.1117 41.0324 31.6241C41.1397 31.5363 41.1938 31.5911 41.1938 31.7898V34.9353C41.204 35.0989 41.1356 35.2452 41.0001 35.3326C39.5024 36.0129 37.7833 36.2181 36.1589 36.192C31.3158 36.192 27.9898 32.7796 27.9913 27.8149C27.9785 23.1099 31.0308 19.1406 35.7715 19.1406C39.7901 19.0365 42.5723 22.2538 42.5834 26.2587C42.5834 26.9879 42.5427 27.72 42.4543 28.4439C42.4372 28.5931 42.3101 28.7089 42.1637 28.7089C38.9543 28.7089 35.7292 28.7554 32.5109 28.7554ZM32.5109 25.7389C34.2996 25.7389 36.0986 25.8022 37.8861 25.7224C38.1547 25.6949 38.3543 25.6439 38.3543 25.3646C38.317 23.8799 37.064 22.6588 35.6101 22.7156C33.8536 22.6067 32.7293 24.0896 32.5109 25.7389Z" fill="#9999FF"/>
</g>
<defs>
<clipPath id="clip0_79_92">
<rect width="49" height="49" fill="white"/>
</clipPath>
</defs>
</svg>
