<svg width="49" height="48" viewBox="0 0 49 48" fill="none" xmlns="http://www.w3.org/2000/svg">
<path d="M0.875 5.25C0.875 2.35069 3.22569 0 6.125 0H42.875C45.7743 0 48.125 2.35069 48.125 5.25V42C48.125 44.8993 45.7743 47.25 42.875 47.25H6.125C3.22569 47.25 0.875 44.8993 0.875 42V5.25Z" fill="#FF5722"/>
<path d="M4.8125 3.9375V43.3125H44.1875V3.9375H4.8125ZM24.0944 32.8125L23.0943 28.9931H17.9546L16.9558 32.8125H12.9697L18.8011 14.1501H22.2491L28.1199 32.8125H24.0944ZM33.4906 32.8125H29.8511V18.9446H33.4906V32.8125ZM33.0995 16.7396C32.7438 17.1071 32.2647 17.2909 31.6571 17.2909C31.0494 17.2909 30.5703 17.1071 30.2146 16.7396C29.8589 16.3721 29.6831 15.9101 29.6831 15.3549C29.6831 14.7906 29.8629 14.3299 30.2212 13.9702C30.5795 13.6106 31.0599 13.4321 31.6571 13.4321C32.2542 13.4321 32.7333 13.6119 33.0929 13.9702C33.4526 14.3286 33.6311 14.7906 33.6311 15.3549C33.6311 15.9101 33.4539 16.3721 33.0995 16.7396Z" fill="#1C0802"/>
<path d="M18.7761 25.8524H22.2621L20.5191 19.2007L18.7761 25.8524Z" fill="#1C0802"/>
</svg>
