<svg width="48" height="47" viewBox="0 0 48 47" fill="none" xmlns="http://www.w3.org/2000/svg">
<path d="M0.75 5.16667C0.75 2.31337 3.06337 0 5.91667 0H42.0833C44.9366 0 47.25 2.31337 47.25 5.16667V41.3333C47.25 44.1866 44.9366 46.5 42.0833 46.5H5.91667C3.06337 46.5 0.75 44.1866 0.75 41.3333V5.16667Z" fill="#03A9F4"/>
<path d="M18.854 17.0166H16.2681V22.7439H18.8165C19.5231 22.7439 20.0694 22.5126 20.4569 22.0502C20.8444 21.5878 21.0369 20.9149 21.0369 20.0314C21.0369 19.1143 20.8393 18.3858 20.444 17.8433C20.0488 17.3008 19.5179 17.0256 18.854 17.0166Z" fill="#020F16"/>
<path d="M4.625 3.875V42.625H43.375V3.875H4.625ZM23.1798 24.2691C22.1129 25.3128 20.6326 25.8333 18.7403 25.8333H16.2681V32.2917H12.5597V13.9255H18.8165C20.6326 13.9255 22.0819 14.4899 23.1617 15.6163C24.2415 16.7426 24.7828 18.206 24.7828 20.0053C24.7828 21.8046 24.248 23.2255 23.1798 24.2691ZM35.2142 31.434C34.2985 32.1741 33.0946 32.5435 31.6066 32.5435C30.6056 32.5435 29.7221 32.3485 28.9574 31.9571C28.1927 31.5657 27.5921 31.0207 27.1594 30.3232C26.7267 29.6257 26.5097 28.8726 26.5097 28.0653H29.9029C29.921 28.6866 30.0644 29.1542 30.3382 29.4655C30.612 29.7768 31.059 29.9318 31.6815 29.9318C32.64 29.9318 33.1192 29.4991 33.1192 28.6324C33.1192 28.3301 32.9745 28.0498 32.6839 27.7941C32.3932 27.5383 31.75 27.1922 30.749 26.7543C29.2778 26.1575 28.2664 25.5401 27.7148 24.8995C27.1633 24.2588 26.8882 23.4657 26.8882 22.515C26.8882 21.3202 27.3196 20.3347 28.1811 19.5571C29.0427 18.7795 30.1858 18.3908 31.6053 18.3908C33.1011 18.3908 34.2998 18.7782 35.2 19.5507C36.1003 20.3231 36.5498 21.3629 36.5498 22.6662H32.9797C32.9797 21.5566 32.5185 21.0012 31.5924 21.0012C31.214 21.0012 30.904 21.1187 30.6585 21.3538C30.4131 21.5889 30.293 21.9183 30.293 22.3381C30.293 22.6403 30.4273 22.9077 30.6973 23.1389C30.9672 23.3701 31.6002 23.7008 32.6025 24.1296C34.0582 24.6682 35.0851 25.2676 35.687 25.9276C36.2889 26.5877 36.5886 27.444 36.5886 28.4942C36.5886 29.7148 36.13 30.6939 35.2142 31.434Z" fill="#020F16"/>
</svg>
