<svg width="56" height="47" viewBox="0 0 56 47" fill="none" xmlns="http://www.w3.org/2000/svg">
<g clip-path="url(#clip0_79_70)">
<path d="M31.7749 46.7939C44.5637 46.7939 54.9312 36.4265 54.9312 23.6377C54.9312 10.8489 44.5637 0.481445 31.7749 0.481445C18.9861 0.481445 8.61865 10.8489 8.61865 23.6377C8.61865 36.4265 18.9861 46.7939 31.7749 46.7939Z" fill="#F78F8F"/>
<path d="M31.775 47.15C18.8103 47.15 8.26245 36.6021 8.26245 23.6375C8.26245 10.6729 18.8103 0.125 31.775 0.125C44.7396 0.125 55.2875 10.6729 55.2875 23.6375C55.2875 36.6021 44.7396 47.15 31.775 47.15ZM31.775 0.8375C19.2029 0.8375 8.97495 11.0654 8.97495 23.6375C8.97495 36.2096 19.2029 46.4375 31.775 46.4375C44.347 46.4375 54.575 36.2096 54.575 23.6375C54.575 11.0654 44.347 0.8375 31.775 0.8375Z" fill="#C74343"/>
<path d="M31.775 0.481445C31.6553 0.481445 31.5377 0.48857 31.4187 0.490707V23.2814H54.9219C54.731 10.6574 44.4446 0.481445 31.775 0.481445Z" fill="#FFC49C"/>
<path d="M55.2839 23.6375H31.0625V0.13925L31.5598 0.129987C31.6318 0.127137 31.7023 0.125 31.775 0.125C44.5416 0.125 55.0851 10.5104 55.2782 23.2756L55.2839 23.6375ZM31.775 22.925H54.5579C54.1781 10.7128 44.0336 0.8375 31.775 0.8375V22.925Z" fill="#C74343"/>
<path d="M24.5666 36.8191H4.78336C2.57319 36.8191 0.78125 35.0272 0.78125 32.817V13.7463C0.78125 11.5361 2.57319 9.74414 4.78336 9.74414H24.5666C26.7768 9.74414 28.5688 11.5361 28.5688 13.7463V32.817C28.5688 35.0272 26.7768 36.8191 24.5666 36.8191Z" fill="#EF7575"/>
<path d="M24.5667 37.1752H4.78341C2.38015 37.1752 0.425049 35.2201 0.425049 32.8168V13.7461C0.425049 11.3428 2.38015 9.3877 4.78341 9.3877H24.5667C26.9699 9.3877 28.925 11.3428 28.925 13.7461V32.8168C28.925 35.2201 26.9699 37.1752 24.5667 37.1752ZM4.78341 10.1002C2.77274 10.1002 1.13755 11.7354 1.13755 13.7461V32.8168C1.13755 34.8268 2.77274 36.4627 4.78341 36.4627H24.5667C26.5774 36.4627 28.2125 34.8268 28.2125 32.8168V13.7461C28.2125 11.7354 26.5774 10.1002 24.5667 10.1002H4.78341Z" fill="#C43737"/>
<path d="M15.4124 15.7998H11.1125H10.4H8.26245V32.1873H11.1125V26.4873H15.2093C17.9411 26.4873 20.7177 24.5251 21.0468 21.8126C21.4416 18.5629 18.5837 15.7998 15.4124 15.7998ZM14.9094 23.6373H11.1125V18.6498H15.0312C16.5609 18.6498 17.7686 20.0264 17.4829 21.6081C17.2656 22.8122 16.1327 23.6373 14.9094 23.6373Z" fill="white"/>
</g>
<defs>
<clipPath id="clip0_79_70">
<rect width="56" height="47" fill="white"/>
</clipPath>
</defs>
</svg>
