<svg width="46" height="47" viewBox="0 0 46 47" fill="none" xmlns="http://www.w3.org/2000/svg">
<g clip-path="url(#clip0_79_96)">
<path d="M-0.1875 17.0958C-0.1875 11.2211 -0.1875 8.28375 0.9558 6.0399C1.96145 4.06615 3.56615 2.46145 5.5399 1.45579C7.78375 0.3125 10.7211 0.3125 16.5958 0.3125H29.4042C35.2789 0.3125 38.2163 0.3125 40.46 1.45579C42.4338 2.46145 44.0385 4.06615 45.044 6.0399C46.1875 8.28375 46.1875 11.2211 46.1875 17.0958V29.9042C46.1875 35.779 46.1875 38.7163 45.044 40.96C44.0385 42.9338 42.4338 44.5385 40.46 45.5442C38.2163 46.6875 35.2789 46.6875 29.4042 46.6875H16.5958C10.7211 46.6875 7.78375 46.6875 5.5399 45.5442C3.56615 44.5385 1.96145 42.9338 0.9558 40.96C-0.1875 38.7163 -0.1875 35.779 -0.1875 29.9042V17.0958Z" fill="#00005B"/>
<path d="M9.75 33.0992V12.2507C9.75 12.1089 9.80815 12.0278 9.9438 12.0278C11.9466 12.0278 13.9485 11.9062 15.9519 11.9062C19.2024 11.9062 22.7223 13.0392 23.956 16.5055C24.2467 17.3565 24.4017 18.2277 24.4017 19.1395C24.4017 20.8818 24.0141 22.3203 23.2389 23.455C21.0735 26.6244 17.3201 26.5751 13.9555 26.5751V33.0788C13.9819 33.2714 13.8209 33.3624 13.6649 33.3624H9.98255C9.82755 33.3624 9.75 33.2815 9.75 33.0992ZM13.975 15.9382V22.7458C15.3091 22.8455 16.7049 22.8562 17.9867 22.4216C19.4018 22.0056 20.1768 20.7571 20.1768 19.261C20.2162 17.9862 19.5346 16.7628 18.3744 16.3029C17.108 15.7661 15.342 15.734 13.975 15.9382Z" fill="#9999FF"/>
<path d="M27.029 17.2257H30.4303C30.6178 17.2275 30.7862 17.3628 30.8357 17.552C31.085 18.1305 31.1158 18.8283 31.1166 19.4529C31.7 18.7428 32.4032 18.1514 33.1916 17.7077C34.0371 17.2077 34.9956 16.9541 35.9668 16.9738C36.1281 16.9496 36.2707 17.0988 36.2477 17.2673V21.2143C36.2477 21.3668 36.1434 21.4427 35.9357 21.4427C34.496 21.3388 32.2548 21.6944 31.2087 22.878V33.1408C31.2087 33.3365 31.1256 33.4344 30.9591 33.4344H27.3099C27.1307 33.4613 26.9725 33.2927 26.9979 33.1082V21.9646C26.9979 20.4715 27.0288 18.9333 26.8107 17.4541C26.7771 17.318 26.9016 17.1914 27.029 17.2257Z" fill="#9999FF"/>
</g>
<defs>
<clipPath id="clip0_79_96">
<rect width="46" height="47" fill="white"/>
</clipPath>
</defs>
</svg>
